<?xml version="1.0" encoding="UTF-8"?>
<svg id="Calque_1" data-name="Calque 1" xmlns="http://www.w3.org/2000/svg" viewBox="0 0 470 153.3">
  <defs>
    <style>
      .cls-1 {
        fill: #fff;
      }
    </style>
  </defs>
  <g>
    <path class="cls-1" d="M125.42,22.08V4.85h10.02v1.75h-7.97v5.67h7.34v1.78h-7.34v6.2h7.97v1.82h-10.02ZM132.64,0l-5.17,2.44,.69,1.28,5.32-2.07-.84-1.66Z"/>
    <path class="cls-1" d="M155.67,22.08h-6.04V4.85h6.04c1.7,0,3.14,.35,4.32,1.05s2.1,1.66,2.74,2.9c.66,1.38,1,2.93,1,4.67,0,1.84-.33,3.38-1,4.63-.64,1.27-1.55,2.26-2.72,2.94-1.17,.69-2.62,1.03-4.34,1.03Zm-3.98-1.82h3.83c1.39,0,2.51-.28,3.35-.83,.84-.55,1.5-1.33,1.98-2.33,.41-.86,.62-2.07,.62-3.63,0-1.32-.24-2.5-.72-3.57-.54-1.06-1.15-1.84-1.84-2.32-.89-.63-2.02-.94-3.39-.94h-3.83v13.62Z"/>
    <path class="cls-1" d="M177.73,4.85h2.02V22.08h-2.02V4.85Z"/>
    <path class="cls-1" d="M192.86,4.85h13.48v1.75h-5.76v15.47h-2.05V6.61h-5.66v-1.75Z"/>
    <path class="cls-1" d="M219.44,4.85h2.02V22.08h-2.02V4.85Z"/>
    <path class="cls-1" d="M247.99,5.78c1.19,.74,2.12,1.75,2.79,3.02,.66,1.46,1,3.02,1,4.67s-.33,3.24-1,4.63c-.66,1.3-1.59,2.32-2.79,3.07-1.19,.75-2.63,1.13-4.31,1.13s-3.11-.38-4.28-1.13c-1.17-.75-2.09-1.77-2.75-3.07-.66-1.21-1-2.75-1-4.63s.33-3.39,1-4.67c.66-1.27,1.58-2.28,2.75-3.02,1.17-.74,2.6-1.11,4.28-1.11s3.12,.37,4.31,1.11Zm-1.15,13.78c.8-.62,1.44-1.46,1.91-2.52,.5-1.04,.75-2.23,.75-3.57s-.25-2.5-.75-3.57c-1.06-2.27-2.75-3.41-5.07-3.41-1.29,0-2.32,.31-3.11,.92-.79,.62-1.43,1.45-1.93,2.49-.48,.96-.72,2.15-.72,3.57s.24,2.63,.72,3.57c.5,1.06,1.14,1.91,1.93,2.52,.79,.62,1.82,.92,3.11,.92s2.36-.31,3.16-.92Z"/>
    <path class="cls-1" d="M265.56,4.85h2.61l9.31,14.44V4.85h2.12V22.08h-2.65l-9.34-14.5v14.5h-2.05V4.85Z"/>
    <path class="cls-1" d="M316,6.61h1.71l-.87,4.6h3.7l.87-4.6h1.74l-.87,4.6h3.89l-.34,1.63h-3.89l-.75,3.95h3.89l-.31,1.63h-3.89l-.93,4.82h-1.74l.93-4.82h-3.7l-.93,4.82h-1.71l.93-4.82h-3.83l.31-1.63h3.83l.75-3.95h-3.86l.34-1.63h3.86l.87-4.6Zm-.25,10.18h3.7l.75-3.95h-3.7l-.75,3.95Z"/>
    <path class="cls-1" d="M342.15,20.51h2.43v1.57h-6.94v-1.57h2.68V9.55l-2.21,.88-.69-1.5,2.65-1.13h2.08v12.71Z"/>
  </g>
  <g>
    <path class="cls-1" d="M1.42,145.34c-.95-1.11-1.42-2.59-1.42-4.44,0-2.04,.57-3.63,1.7-4.77,1.1-1.06,2.46-1.59,4.09-1.59,1.09,0,2.02,.19,2.79,.56v-4.92h2.11v16.58h-1.49l-.34-.84c-1.12,.73-2.23,1.09-3.35,1.09-1.78,0-3.14-.56-4.09-1.67Zm5.9-.22c.38-.11,.8-.3,1.25-.55v-7.92c-.76-.31-1.64-.47-2.63-.47-1.28,0-2.25,.42-2.89,1.25-.65,.83-.98,1.94-.98,3.33s.32,2.47,.98,3.29c.65,.82,1.6,1.23,2.86,1.23,.56,0,1.03-.06,1.41-.17Z"/>
    <path class="cls-1" d="M32.95,136.05c.85,.95,1.27,2.28,1.27,4.01v1.09l-.12,.25h-8.15c0,1.02,.38,1.96,1.15,2.84,.72,.73,1.85,1.09,3.38,1.09,1.01,0,1.97-.16,2.88-.47l.37,1.5c-1.26,.44-2.53,.65-3.81,.65-1.92,0-3.39-.52-4.4-1.56-1.01-1.04-1.52-2.52-1.52-4.46,0-1.83,.44-3.33,1.33-4.52,.95-1.23,2.28-1.84,4-1.84,1.57,0,2.78,.47,3.62,1.42Zm-1.44,1.17c-.44-.66-1.1-1-1.97-1-1.1,0-1.93,.33-2.51,1-.58,.66-.93,1.52-1.05,2.56h6.19c0-1.04-.22-1.89-.67-2.56Z"/>
    <path class="cls-1" d="M53.07,144.9c.51-.28,.76-.69,.76-1.23,0-.44-.19-.78-.56-1.03-.37-.25-1.16-.62-2.35-1.12l-1.18-.47c-.52-.25-.94-.47-1.27-.67-.33-.2-.63-.5-.9-.9-.27-.4-.4-.92-.4-1.54,0-1.12,.46-1.95,1.38-2.49,.92-.54,2.05-.81,3.39-.81,1.14,0,2.27,.26,3.41,.78l-.49,1.5c-.93-.39-1.83-.59-2.7-.59s-1.6,.13-2.15,.39c-.55,.26-.82,.63-.82,1.11s.19,.85,.57,1.12c.38,.27,1.04,.58,1.97,.93l1.02,.41c1.13,.48,1.93,.98,2.38,1.5,.45,.52,.68,1.2,.68,2.06s-.4,1.63-1.21,2.26c-.81,.63-1.88,.95-3.22,.95-1.53,0-3.04-.3-4.52-.9l.56-1.53c1.34,.48,2.61,.72,3.81,.72,.72,0,1.34-.14,1.84-.42Z"/>
    <path class="cls-1" d="M91.15,144.98l.37,1.46c-.06,.02-.31,.12-.74,.31s-.99,.28-1.67,.28c-.77,0-1.37-.26-1.83-.79s-.69-1.22-.71-2.07v-14.02h1.95v13.31c0,.56,.09,.99,.28,1.28,.19,.29,.62,.44,1.3,.44,.31,0,.66-.06,1.05-.19Z"/>
    <path class="cls-1" d="M112.18,136.05c.85,.95,1.27,2.28,1.27,4.01v1.09l-.12,.25h-8.15c0,1.02,.38,1.96,1.15,2.84,.72,.73,1.85,1.09,3.38,1.09,1.01,0,1.97-.16,2.88-.47l.37,1.5c-1.26,.44-2.53,.65-3.81,.65-1.92,0-3.39-.52-4.4-1.56-1.01-1.04-1.52-2.52-1.52-4.46,0-1.83,.44-3.33,1.33-4.52,.95-1.23,2.28-1.84,4-1.84,1.57,0,2.78,.47,3.62,1.42Zm-1.44,1.17c-.44-.66-1.1-1-1.97-1-1.1,0-1.93,.33-2.51,1-.58,.66-.93,1.52-1.05,2.56h6.19c0-1.04-.22-1.89-.67-2.56Z"/>
    <path class="cls-1" d="M128.98,136.52c-.61,.09-1.15,.21-1.63,.36l-.4-1.5c1.38-.48,2.67-.72,3.87-.72,1.34,0,2.36,.21,3.07,.62,.62,.46,1.05,.95,1.29,1.46,.24,.52,.36,1.28,.36,2.27v7.73h-1.52l-.43-1.12c-1.18,.96-2.38,1.43-3.62,1.43-1.07,0-1.98-.31-2.71-.94s-1.1-1.41-1.1-2.37,.28-1.71,.85-2.32c.57-.61,1.26-1.02,2.09-1.23,1.05-.27,2.53-.43,4.43-.47v-.09c0-.85-.08-1.48-.25-1.87-.33-.93-1.24-1.4-2.72-1.4-.43,0-.96,.05-1.57,.14Zm3.05,8.57c.52-.24,1.01-.58,1.49-1.01v-2.87c-1.42,.02-2.48,.1-3.16,.25-.77,.17-1.33,.41-1.7,.73-.37,.32-.56,.77-.56,1.36s.21,1.07,.63,1.4c.42,.33,.92,.5,1.5,.5,.68,0,1.28-.12,1.8-.36Z"/>
    <path class="cls-1" d="M150.15,145.34c-.95-1.11-1.42-2.59-1.42-4.44,0-2.04,.57-3.63,1.7-4.77,1.1-1.06,2.46-1.59,4.09-1.59,1.09,0,2.02,.19,2.79,.56v-4.92h2.11v16.58h-1.49l-.34-.84c-1.12,.73-2.23,1.09-3.35,1.09-1.78,0-3.14-.56-4.09-1.67Zm5.9-.22c.38-.11,.8-.3,1.25-.55v-7.92c-.76-.31-1.64-.47-2.63-.47-1.28,0-2.25,.42-2.89,1.25-.65,.83-.98,1.94-.98,3.33s.32,2.47,.98,3.29c.65,.82,1.6,1.23,2.86,1.23,.56,0,1.03-.06,1.41-.17Z"/>
    <path class="cls-1" d="M181.67,136.05c.85,.95,1.27,2.28,1.27,4.01v1.09l-.12,.25h-8.15c0,1.02,.38,1.96,1.15,2.84,.72,.73,1.85,1.09,3.38,1.09,1.01,0,1.97-.16,2.88-.47l.37,1.5c-1.26,.44-2.53,.65-3.81,.65-1.92,0-3.39-.52-4.4-1.56-1.01-1.04-1.52-2.52-1.52-4.46,0-1.83,.44-3.33,1.33-4.52,.95-1.23,2.28-1.84,4-1.84,1.57,0,2.78,.47,3.62,1.42Zm-1.44,1.17c-.44-.66-1.1-1-1.97-1-1.1,0-1.93,.33-2.51,1-.58,.66-.93,1.52-1.05,2.56h6.19c0-1.04-.22-1.89-.67-2.56Z"/>
    <path class="cls-1" d="M202.44,134.71c.28,.05,.55,.14,.82,.26l-.71,1.81c-.54-.25-1.13-.37-1.77-.37-.87,0-1.72,.29-2.57,.87v9.47h-2.01v-11.97h1.46l.43,1.03c1.03-.79,2.12-1.18,3.25-1.18,.45,0,.82,.03,1.1,.08Z"/>
    <path class="cls-1" d="M221.27,144.9c.51-.28,.76-.69,.76-1.23,0-.44-.19-.78-.56-1.03-.37-.25-1.16-.62-2.35-1.12l-1.18-.47c-.52-.25-.94-.47-1.27-.67-.33-.2-.63-.5-.9-.9-.27-.4-.4-.92-.4-1.54,0-1.12,.46-1.95,1.38-2.49,.92-.54,2.05-.81,3.39-.81,1.14,0,2.27,.26,3.41,.78l-.49,1.5c-.93-.39-1.83-.59-2.7-.59s-1.6,.13-2.15,.39c-.55,.26-.82,.63-.82,1.11s.19,.85,.57,1.12c.38,.27,1.04,.58,1.97,.93l1.02,.41c1.13,.48,1.93,.98,2.38,1.5,.45,.52,.68,1.2,.68,2.06s-.4,1.63-1.21,2.26c-.81,.63-1.88,.95-3.22,.95-1.53,0-3.04-.3-4.52-.9l.56-1.53c1.34,.48,2.61,.72,3.81,.72,.72,0,1.34-.14,1.84-.42Z"/>
    <path class="cls-1" d="M263.16,136.05c.85,.95,1.27,2.28,1.27,4.01v1.09l-.12,.25h-8.15c0,1.02,.38,1.96,1.15,2.84,.72,.73,1.85,1.09,3.38,1.09,1.01,0,1.97-.16,2.88-.47l.37,1.5c-1.26,.44-2.53,.65-3.81,.65-1.92,0-3.39-.52-4.4-1.56-1.01-1.04-1.52-2.52-1.52-4.46,0-1.83,.44-3.33,1.33-4.52,.95-1.23,2.28-1.84,4-1.84,1.57,0,2.78,.47,3.62,1.42Zm-1.44,1.17c-.44-.66-1.1-1-1.97-1-1.1,0-1.93,.33-2.51,1-.58,.66-.93,1.52-1.05,2.56h6.19c0-1.04-.22-1.89-.67-2.56Z"/>
    <path class="cls-1" d="M284.98,136.97c-.38-.44-1.05-.65-2-.65-1.01,0-2.11,.28-3.28,.84v9.6h-2.01v-11.97h1.4l.43,1c1.42-.79,2.82-1.18,4.18-1.18,1.26,0,2.22,.36,2.88,1.07,.66,.72,.99,1.71,.99,2.98v8.1h-2.01v-7.6c0-1.02-.19-1.75-.57-2.18Z"/>
    <path class="cls-1" d="M306.21,147.01c-1.9,0-3.36-.74-4.37-2.21-.72-1.08-1.08-2.35-1.08-3.8s.31-2.73,.94-3.75,1.5-1.77,2.62-2.23c.52-.25,1.19-.37,2.01-.37,.97,0,1.9,.21,2.79,.62l.59,.28,.22-.75h1.46v12.53c0,1.1-.12,1.98-.37,2.65s-.67,1.28-1.27,1.84c-.5,.48-1.11,.85-1.84,1.11-.73,.26-1.55,.39-2.46,.39-.58,0-1.2-.07-1.87-.22-.67-.15-1.25-.33-1.75-.56l.53-1.43c1.18,.42,2.12,.62,2.82,.62,1.24,0,2.21-.3,2.91-.9,.7-.6,1.12-1.45,1.24-2.56,.02-.23,.03-.81,.03-1.75v-.31c-1.03,.54-2.07,.81-3.13,.81Zm3.13-2.31v-7.82c-.93-.42-1.85-.62-2.76-.62-1.24,0-2.18,.4-2.82,1.22-.64,.81-.96,1.89-.96,3.24,0,.98,.19,1.84,.56,2.59,.37,.75,.88,1.29,1.52,1.62,.51,.29,1.11,.44,1.8,.44,1.03,0,1.92-.22,2.66-.66Z"/>
    <path class="cls-1" d="M327.59,136.52c-.61,.09-1.15,.21-1.63,.36l-.4-1.5c1.38-.48,2.67-.72,3.87-.72,1.34,0,2.36,.21,3.07,.62,.62,.46,1.05,.95,1.29,1.46,.24,.52,.36,1.28,.36,2.27v7.73h-1.52l-.43-1.12c-1.18,.96-2.38,1.43-3.62,1.43-1.07,0-1.98-.31-2.71-.94s-1.1-1.41-1.1-2.37,.28-1.71,.85-2.32c.57-.61,1.26-1.02,2.09-1.23,1.05-.27,2.53-.43,4.43-.47v-.09c0-.85-.08-1.48-.25-1.87-.33-.93-1.24-1.4-2.72-1.4-.43,0-.96,.05-1.57,.14Zm3.05,8.57c.52-.24,1.01-.58,1.49-1.01v-2.87c-1.42,.02-2.48,.1-3.16,.25-.77,.17-1.33,.41-1.7,.73-.37,.32-.56,.77-.56,1.36s.21,1.07,.63,1.4c.42,.33,.92,.5,1.5,.5,.68,0,1.28-.12,1.8-.36Z"/>
    <path class="cls-1" d="M352.79,147.01c-1.9,0-3.36-.74-4.37-2.21-.72-1.08-1.08-2.35-1.08-3.8s.31-2.73,.94-3.75,1.5-1.77,2.62-2.23c.52-.25,1.19-.37,2.01-.37,.97,0,1.9,.21,2.79,.62l.59,.28,.22-.75h1.46v12.53c0,1.1-.12,1.98-.37,2.65s-.67,1.28-1.27,1.84c-.5,.48-1.11,.85-1.84,1.11-.73,.26-1.55,.39-2.46,.39-.58,0-1.2-.07-1.87-.22-.67-.15-1.25-.33-1.75-.56l.53-1.43c1.18,.42,2.12,.62,2.82,.62,1.24,0,2.21-.3,2.91-.9,.7-.6,1.12-1.45,1.24-2.56,.02-.23,.03-.81,.03-1.75v-.31c-1.03,.54-2.07,.81-3.13,.81Zm3.13-2.31v-7.82c-.93-.42-1.85-.62-2.76-.62-1.24,0-2.18,.4-2.82,1.22-.64,.81-.96,1.89-.96,3.24,0,.98,.19,1.84,.56,2.59,.37,.75,.88,1.29,1.52,1.62,.51,.29,1.11,.44,1.8,.44,1.03,0,1.92-.22,2.66-.66Z"/>
    <path class="cls-1" d="M380.29,136.05c.85,.95,1.27,2.28,1.27,4.01v1.09l-.12,.25h-8.15c0,1.02,.38,1.96,1.15,2.84,.72,.73,1.85,1.09,3.38,1.09,1.01,0,1.97-.16,2.88-.47l.37,1.5c-1.26,.44-2.53,.65-3.81,.65-1.92,0-3.39-.52-4.4-1.56-1.01-1.04-1.52-2.52-1.52-4.46,0-1.83,.44-3.33,1.33-4.52,.95-1.23,2.28-1.84,4-1.84,1.57,0,2.78,.47,3.62,1.42Zm-1.44,1.17c-.44-.66-1.1-1-1.97-1-1.1,0-1.93,.33-2.51,1-.58,.66-.93,1.52-1.05,2.56h6.19c0-1.04-.22-1.89-.67-2.56Zm-.73-8.94l1.12,1.34-4.65,3.83-1.02-1.18,4.55-3.99Z"/>
    <path class="cls-1" d="M395.48,146.48c-.26-.27-.39-.6-.39-1s.13-.73,.39-1c.26-.27,.59-.41,1.01-.41s.75,.14,1.01,.41c.26,.27,.39,.6,.39,1s-.13,.73-.39,1c-.26,.27-.59,.4-1.01,.4s-.75-.14-1.01-.4Z"/>
    <path class="cls-1" d="M420.43,136.05c.85,.95,1.27,2.28,1.27,4.01v1.09l-.12,.25h-8.15c0,1.02,.38,1.96,1.15,2.84,.72,.73,1.85,1.09,3.38,1.09,1.01,0,1.97-.16,2.88-.47l.37,1.5c-1.26,.44-2.53,.65-3.81,.65-1.92,0-3.39-.52-4.4-1.56-1.01-1.04-1.52-2.52-1.52-4.46,0-1.83,.44-3.33,1.33-4.52,.95-1.23,2.28-1.84,4-1.84,1.57,0,2.78,.47,3.62,1.42Zm-1.44,1.17c-.44-.66-1.1-1-1.97-1-1.1,0-1.93,.33-2.51,1-.58,.66-.93,1.52-1.05,2.56h6.19c0-1.04-.22-1.89-.67-2.56Z"/>
    <path class="cls-1" d="M435.62,146.48c-.26-.27-.39-.6-.39-1s.13-.73,.39-1c.26-.27,.59-.41,1.01-.41s.75,.14,1.01,.41c.26,.27,.39,.6,.39,1s-.13,.73-.39,1c-.26,.27-.59,.4-1.01,.4s-.75-.14-1.01-.4Z"/>
    <path class="cls-1" d="M457.76,144.9c.51-.28,.76-.69,.76-1.23,0-.44-.19-.78-.56-1.03-.37-.25-1.16-.62-2.35-1.12l-1.18-.47c-.52-.25-.94-.47-1.27-.67-.33-.2-.63-.5-.9-.9-.27-.4-.4-.92-.4-1.54,0-1.12,.46-1.95,1.38-2.49,.92-.54,2.05-.81,3.39-.81,1.14,0,2.27,.26,3.41,.78l-.49,1.5c-.93-.39-1.83-.59-2.7-.59s-1.6,.13-2.15,.39c-.55,.26-.82,.63-.82,1.11s.19,.85,.57,1.12c.38,.27,1.04,.58,1.97,.93l1.02,.41c1.13,.48,1.93,.98,2.38,1.5,.45,.52,.68,1.2,.68,2.06s-.4,1.63-1.21,2.26c-.81,.63-1.88,.95-3.22,.95-1.53,0-3.04-.3-4.52-.9l.56-1.53c1.34,.48,2.61,.72,3.81,.72,.72,0,1.34-.14,1.84-.42Z"/>
  </g>
  <g>
    <g>
      <path class="cls-1" d="M37.14,94.24c.3,0,.58,.12,.85,.34,.27,.23,.4,.52,.4,.86v9.73c0,.52-.12,.93-.35,1.25-.23,.32-.66,.47-1.29,.47H1.63c-.46,0-.8-.13-1.03-.39s-.34-.55-.34-.86,.12-.6,.34-.86,.57-.39,1.03-.39c.69,0,1.13-.57,1.33-1.72,.2-1.15,.3-2.38,.3-3.7V56.62c0-.69,.01-1.39,.04-2.11,.03-.72,0-1.38-.09-1.98-.09-.6-.25-1.1-.48-1.51-.23-.4-.6-.6-1.12-.6-.46,0-.8-.13-1.03-.39s-.34-.53-.34-.82,.09-.57,.26-.86c.17-.29,.55-.43,1.12-.43H13.34c.4,0,.73,.13,.99,.39s.39,.55,.39,.86-.12,.6-.34,.86c-.23,.26-.58,.39-1.03,.39-.52,0-.89,.16-1.12,.47-.23,.32-.39,.73-.47,1.25-.09,.52-.13,1.09-.13,1.72v51.66h5.42c1.89,0,3.93-.13,6.11-.39,2.18-.26,4.22-.75,6.11-1.46,1.89-.72,3.47-1.74,4.74-3.06,1.26-1.32,1.89-3.04,1.89-5.17,0-.8,.42-1.2,1.25-1.2Z"/>
      <path class="cls-1" d="M79.11,48.4c.23,.32,.34,.73,.34,1.25v9.73c0,.34-.13,.65-.39,.9-.26,.26-.56,.39-.9,.39s-.63-.13-.86-.39-.34-.56-.34-.9c0-1.49-.03-2.86-.09-4.09-.06-1.23-.46-2.29-1.21-3.19-.75-.89-1.99-1.58-3.75-2.07-1.75-.49-4.32-.73-7.71-.73h-9.21v26.17h7.23c.46,0,1.13-.03,2.02-.09,.89-.06,1.79-.26,2.71-.6s1.71-.92,2.37-1.72c.66-.8,.99-1.95,.99-3.44,0-.8,.4-1.21,1.21-1.21,.34,0,.65,.12,.9,.34,.26,.23,.39,.52,.39,.86v13.09c0,.34-.13,.65-.39,.9-.26,.26-.56,.39-.9,.39s-.63-.13-.86-.39-.34-.56-.34-.9c0-1.49-.33-2.64-.99-3.44-.66-.8-1.45-1.38-2.37-1.72s-1.82-.55-2.71-.6c-.89-.06-1.56-.09-2.02-.09h-7.23v28.67h9.21c3.39,0,5.95-.24,7.71-.73,1.75-.49,3-1.18,3.75-2.07,.75-.89,1.15-1.95,1.21-3.19,.06-1.23,.09-2.6,.09-4.09,0-.8,.4-1.2,1.21-1.2,.34,0,.65,.12,.9,.34,.26,.23,.39,.52,.39,.86v9.73c0,.52-.12,.93-.34,1.25-.23,.32-.66,.47-1.29,.47H45.02c-.46,0-.8-.13-1.03-.39s-.34-.55-.34-.86,.12-.6,.34-.86,.57-.39,1.03-.39,.8-.27,1.03-.82c.23-.55,.39-1.21,.47-1.98,.09-.78,.13-1.59,.13-2.45V55.84c0-1.26-.1-2.48-.3-3.66-.2-1.18-.65-1.76-1.33-1.76-.46,0-.8-.13-1.03-.39s-.34-.54-.34-.86,.12-.6,.34-.86,.57-.39,1.03-.39h32.8c.63,0,1.06,.16,1.29,.47Z"/>
      <path class="cls-1" d="M153.2,48.32c.26,.27,.39,.55,.39,.85,0,.36-.13,.65-.39,.89-.26,.24-.53,.36-.82,.36-.92,0-1.66,.13-2.24,.39-.58,.26-1.02,.57-1.33,.95-.32,.37-.53,.8-.65,1.29-.12,.49-.17,.96-.17,1.42v51.57c0,.57-.29,.86-.86,.86-.17,0-.37-.12-.6-.36-.12-.12-.2-.27-.26-.45l-31.6-47.58v41.84c0,.46,.06,.93,.17,1.42,.12,.49,.33,.93,.65,1.33,.31,.4,.76,.73,1.33,.99,.57,.26,1.32,.39,2.24,.39,.29,0,.56,.12,.82,.36,.26,.24,.39,.53,.39,.89,0,.3-.13,.57-.39,.8-.26,.24-.53,.36-.82,.36h-10.42c-.8,0-1.21-.42-1.21-1.25s.4-1.25,1.21-1.25c1.78,0,2.94-.44,3.49-1.33s.82-1.79,.82-2.71V55.58c0-.34-.06-.8-.17-1.38-.12-.57-.3-1.15-.56-1.72-.26-.57-.6-1.06-1.03-1.46-.43-.4-1.02-.6-1.77-.6-.29,0-.56-.12-.82-.36-.26-.24-.39-.53-.39-.89,0-.3,.13-.58,.39-.85,.26-.27,.53-.4,.82-.4h7.32c.8,0,1.49,.14,2.07,.4,.57,.27,1.03,.55,1.38,.85,.4,.36,.75,.77,1.03,1.25l25.06,37.88V54.47c0-.92-.27-1.82-.82-2.71-.55-.89-1.71-1.33-3.49-1.33-.34,0-.63-.13-.86-.4s-.34-.55-.34-.85c0-.83,.4-1.25,1.21-1.25h10.42c.29,0,.56,.14,.82,.4Z"/>
      <path class="cls-1" d="M194.06,48.4c.23,.32,.34,.73,.34,1.25v9.73c0,.34-.13,.65-.39,.9-.26,.26-.56,.39-.9,.39s-.63-.13-.86-.39-.34-.56-.34-.9c0-1.49-.03-2.86-.09-4.09-.06-1.23-.46-2.29-1.21-3.19-.75-.89-1.99-1.58-3.75-2.07-1.75-.49-4.32-.73-7.71-.73h-9.21v26.17h7.23c.46,0,1.13-.03,2.02-.09,.89-.06,1.79-.26,2.71-.6s1.71-.92,2.37-1.72c.66-.8,.99-1.95,.99-3.44,0-.8,.4-1.21,1.21-1.21,.34,0,.65,.12,.9,.34,.26,.23,.39,.52,.39,.86v13.09c0,.34-.13,.65-.39,.9-.26,.26-.56,.39-.9,.39s-.63-.13-.86-.39-.34-.56-.34-.9c0-1.49-.33-2.64-.99-3.44-.66-.8-1.45-1.38-2.37-1.72s-1.82-.55-2.71-.6c-.89-.06-1.56-.09-2.02-.09h-7.23v28.67h9.21c3.39,0,5.95-.24,7.71-.73,1.75-.49,3-1.18,3.75-2.07,.75-.89,1.15-1.95,1.21-3.19,.06-1.23,.09-2.6,.09-4.09,0-.8,.4-1.2,1.21-1.2,.34,0,.65,.12,.9,.34,.26,.23,.39,.52,.39,.86v9.73c0,.52-.12,.93-.34,1.25-.23,.32-.66,.47-1.29,.47h-32.8c-.46,0-.8-.13-1.03-.39s-.34-.55-.34-.86,.12-.6,.34-.86,.57-.39,1.03-.39,.8-.27,1.03-.82c.23-.55,.39-1.21,.47-1.98,.09-.78,.13-1.59,.13-2.45V55.84c0-1.26-.1-2.48-.3-3.66-.2-1.18-.65-1.76-1.33-1.76-.46,0-.8-.13-1.03-.39s-.34-.54-.34-.86,.12-.6,.34-.86,.57-.39,1.03-.39h32.8c.63,0,1.06,.16,1.29,.47Z"/>
      <path class="cls-1" d="M242.96,50.51c-1.32,0-2.28,.3-2.88,.9-.6,.6-1.05,1.25-1.33,1.94-.29,.8-.43,1.72-.43,2.76l.17,34.01c0,2.75-.39,5.21-1.16,7.36-.77,2.15-1.88,3.99-3.31,5.51-1.44,1.52-3.13,2.67-5.08,3.44-1.95,.77-4.13,1.16-6.54,1.16-1.84,0-3.86-.12-6.07-.34-2.21-.23-4.28-.9-6.2-2.02-1.92-1.12-3.54-2.86-4.86-5.21-1.32-2.35-1.98-5.65-1.98-9.9v-31.94c0-.69,.01-1.46,.04-2.32,.03-.86,.01-1.69-.04-2.5-.06-.8-.21-1.48-.47-2.02-.26-.55-.65-.82-1.16-.82-.46,0-.8-.13-1.03-.39s-.34-.54-.34-.86,.12-.6,.34-.86,.57-.39,1.03-.39h11.71c.4,0,.73,.13,.99,.39s.39,.55,.39,.86-.12,.6-.34,.86c-.23,.26-.58,.39-1.03,.39-.52,0-.9,.27-1.16,.82-.26,.55-.43,1.22-.52,2.02-.09,.8-.12,1.64-.09,2.5s.04,1.64,.04,2.32v31.94c0,5.57,.89,9.66,2.67,12.27,1.78,2.61,4.48,3.92,8.09,3.92,2.64,0,4.87-.52,6.67-1.55,1.81-1.03,3.24-2.34,4.3-3.92,1.06-1.58,1.82-3.32,2.28-5.21,.46-1.89,.69-3.73,.69-5.51V56.1c0-1.03-.14-1.95-.43-2.76-.29-.69-.73-1.33-1.33-1.94-.6-.6-1.51-.9-2.71-.9-.34,0-.63-.13-.86-.39s-.34-.56-.34-.9c0-.8,.4-1.21,1.2-1.21h11.11c.34,0,.65,.12,.9,.34,.26,.23,.39,.52,.39,.86s-.13,.65-.39,.9c-.26,.26-.56,.39-.9,.39Z"/>
      <path class="cls-1" d="M289.28,104.4c.46,0,.8,.13,1.03,.4,.23,.27,.34,.55,.34,.85s-.13,.58-.39,.85c-.26,.27-.59,.4-.99,.4h-4.74c-1.49,0-2.88-.15-4.16-.45-1.28-.3-2.39-1.01-3.32-2.15s-1.68-2.8-2.21-4.98c-.54-2.18-.81-5.17-.81-8.96,0-2.98-.17-5.45-.52-7.4-.34-1.95-.92-3.49-1.72-4.61-.8-1.12-1.88-1.89-3.23-2.32-1.35-.43-3.06-.65-5.12-.65h-5.17v23.68c.06,1.26,.19,2.45,.39,3.57,.2,1.12,.65,1.68,1.34,1.68,.46,0,.8,.13,1.03,.4,.23,.27,.34,.56,.34,.89s-.13,.62-.39,.89c-.26,.27-.59,.4-.99,.4h-11.71c-.46,0-.79-.13-.99-.4-.2-.27-.3-.56-.3-.89s.1-.62,.3-.89c.2-.27,.53-.4,.99-.4,.4,0,.7-.19,.9-.56,.2-.37,.36-.86,.48-1.46,.11-.6,.19-1.26,.21-1.98s.04-1.42,.04-2.11V55.83c0-1.26-.1-2.48-.3-3.65-.2-1.17-.65-1.76-1.33-1.76-.46,0-.8-.13-1.03-.39-.23-.26-.34-.55-.34-.86s.11-.6,.34-.86c.23-.26,.57-.39,1.03-.39h14.95c3.09,0,5.9,.16,8.42,.47,2.52,.31,4.7,.9,6.53,1.76s3.25,2.09,4.25,3.7,1.5,3.7,1.5,6.27c0,3.44-.99,6.22-2.96,8.34-1.97,2.12-4.68,3.75-8.11,4.9,1.89,.29,3.4,.8,4.55,1.55,1.14,.75,2.04,1.81,2.7,3.18,.66,1.38,1.09,3.07,1.29,5.07,.2,2.01,.3,4.41,.3,7.22,0,3.21,.24,5.75,.73,7.61,.49,1.86,1.11,3.27,1.85,4.21,.75,.95,1.56,1.55,2.45,1.81,.89,.26,1.73,.39,2.54,.39Zm-31-30.22c5.48-.29,9.68-1.62,12.59-4,2.91-2.38,4.37-5.7,4.37-9.94,0-2.12-.33-3.89-.99-5.3-.65-1.41-1.53-2.51-2.61-3.31-1.08-.8-2.35-1.38-3.81-1.72-1.46-.34-2.98-.52-4.58-.52h-4.97v24.8Z"/>
      <path class="cls-1" d="M309.86,47.41c2.24,0,4.46,.55,6.67,1.64,2.21,1.09,4.18,2.84,5.9,5.25,1.72,2.41,3.13,5.53,4.22,9.34,1.09,3.82,1.64,8.45,1.64,13.9s-.55,10.17-1.64,13.99c-1.09,3.82-2.5,6.93-4.22,9.34-1.72,2.41-3.69,4.16-5.9,5.25-2.21,1.09-4.43,1.64-6.67,1.64-2.07,0-4.25-.55-6.54-1.64-2.3-1.09-4.41-2.84-6.33-5.25-1.92-2.41-3.5-5.52-4.74-9.34-1.24-3.82-1.85-8.48-1.85-13.99s.62-10.09,1.85-13.9c1.23-3.82,2.81-6.93,4.74-9.34,1.92-2.41,4.03-4.16,6.33-5.25,2.3-1.09,4.48-1.64,6.54-1.64Zm0,58.72c2.01,0,3.67-.56,4.99-1.68,1.32-1.12,2.35-2.84,3.1-5.17,.75-2.32,1.26-5.28,1.55-8.87,.29-3.59,.43-7.88,.43-12.87s-.14-9.2-.43-12.79c-.29-3.59-.8-6.54-1.55-8.87-.75-2.32-1.78-4.03-3.1-5.12-1.32-1.09-2.98-1.64-4.99-1.64-3.79,0-6.59,2.27-8.4,6.8-1.81,4.53-2.71,11.74-2.71,21.61s.9,17.18,2.71,21.74c1.81,4.56,4.61,6.84,8.4,6.84Z"/>
      <path class="cls-1" d="M371.42,47.92c4.31,0,7.89,.78,10.76,2.33,2.87,1.55,5.17,3.66,6.89,6.33,1.72,2.67,2.93,5.78,3.61,9.34s1.03,7.35,1.03,11.36c0,3.62-.44,7.2-1.33,10.76-.89,3.56-2.24,6.73-4.05,9.51-1.81,2.79-4.12,5.04-6.93,6.76-2.81,1.72-6.14,2.58-9.99,2.58h-14.98c-.46,0-.8-.13-1.03-.39-.23-.26-.34-.55-.34-.86s.11-.6,.34-.86c.23-.26,.57-.39,1.03-.39s.79-.37,.99-1.12c.2-.75,.36-1.61,.47-2.58,.11-1.09,.17-2.35,.17-3.79V55.84c0-1.26-.1-2.48-.3-3.66-.2-1.18-.65-1.76-1.33-1.76-.46,0-.8-.13-1.03-.39-.23-.26-.34-.54-.34-.86s.11-.6,.34-.86c.23-.26,.57-.39,1.03-.39h14.98Zm0,57.6c2.35,0,4.4-.78,6.16-2.32,1.75-1.55,3.19-3.62,4.3-6.2,1.12-2.58,1.95-5.58,2.5-9,.55-3.41,.82-6.99,.82-10.72s-.25-7.55-.73-10.93c-.49-3.39-1.28-6.34-2.37-8.87-1.09-2.52-2.51-4.51-4.26-5.94s-3.89-2.15-6.41-2.15h-4.99v56.14h4.99Z"/>
      <path class="cls-1" d="M434.27,104.49c.34,0,.63,.13,.86,.39s.34,.53,.34,.82c0,.8-.4,1.21-1.21,1.21h-11.37c-.75,0-1.12-.4-1.12-1.21,0-.29,.11-.56,.34-.82,.23-.26,.49-.39,.77-.39,.69,0,1.03-.46,1.03-1.38,.06-.46-.07-1.33-.39-2.63-.32-1.29-.76-2.88-1.33-4.78-.75-1.38-1.67-2.9-2.76-4.56-1.09-1.66-2.35-3.23-3.79-4.69-1.43-1.46-3.06-2.71-4.86-3.75s-3.78-1.61-5.9-1.72l-6.2,19.46c-.34,.8-.4,1.52-.17,2.15,.11,.52,.5,.99,1.16,1.42,.66,.43,1.74,.65,3.23,.65v.09c.74,0,1.12,.34,1.12,1.03,0,.75-.37,1.12-1.12,1.12h-10.59c-.75,0-1.12-.37-1.12-1.12,0-.69,.37-1.03,1.12-1.03v-.09c.75,0,1.38-.13,1.89-.39s.95-.6,1.29-1.03,.6-.89,.78-1.38c.17-.49,.34-.96,.52-1.42l13.43-42.36c1.15-4.19,2.01-7.17,2.58-8.95,.11-.29,.27-.59,.47-.9,.2-.32,.62-.47,1.25-.47,.57,0,.95,.16,1.12,.47,.17,.32,.32,.59,.43,.82,.34,1.09,.82,2.67,1.42,4.74,.6,2.07,1.29,4.43,2.07,7.1,.77,2.67,1.61,5.54,2.5,8.61,.89,3.07,1.79,6.14,2.71,9.21,.92,3.07,1.81,6.04,2.67,8.91,.86,2.87,1.64,5.44,2.33,7.71,.69,2.27,1.28,4.13,1.76,5.6,.49,1.46,.82,2.31,.99,2.54,.52,.69,1.01,1.03,1.46,1.03h.26Zm-29.01-24.45c3.33,.12,6.07,.57,8.22,1.38,2.15,.8,3.8,1.61,4.95,2.41-.69-2.12-1.39-4.26-2.11-6.41-.72-2.15-1.41-4.2-2.06-6.16-.66-1.95-1.25-3.76-1.77-5.42-.52-1.66-.95-3.1-1.29-4.3l-5.94,18.51Z"/>
      <path class="cls-1" d="M470,49.17c0,.83-.4,1.25-1.21,1.25-.52,0-1.01,.16-1.46,.47-.46,.32-.83,.68-1.12,1.08-.34,.46-.66,.95-.95,1.46l-13.17,25.74v17.74c0,.69,.01,1.46,.04,2.33,.03,.86,.1,1.68,.21,2.45,.12,.77,.27,1.42,.47,1.94s.48,.78,.82,.78h.09c.52,0,.87,.13,1.08,.39,.2,.26,.3,.55,.3,.86s-.13,.6-.39,.86c-.26,.26-.59,.39-.99,.39h-11.62c-.4,0-.69-.13-.86-.39s-.26-.55-.26-.86,.1-.6,.3-.86c.2-.26,.47-.39,.82-.39h.09c.23,0,.43-.29,.6-.86,.17-.57,.33-1.26,.47-2.07,.14-.8,.26-1.64,.34-2.5,.09-.86,.13-1.55,.13-2.07v-17.74l-11.97-27.72c-.06-.17-.14-.34-.26-.52-.34-.34-.75-.52-1.2-.52h-.26c-.8,0-1.21-.42-1.21-1.25s.4-1.25,1.21-1.25h11.37c.75,0,1.12,.42,1.12,1.25s-.37,1.25-1.12,1.25c-.8,0-1.21,.23-1.21,.69-.06,.23,0,.46,.17,.69l10.42,25.48,12.4-23.85c.29-.52,.34-1,.17-1.46-.12-.4-.47-.76-1.08-1.08-.6-.31-1.65-.47-3.14-.47-.8,0-1.21-.42-1.21-1.25s.4-1.25,1.21-1.25h9.64c.8,0,1.21,.42,1.21,1.25Z"/>
    </g>
    <path class="cls-1" d="M350.63,61.54c-5.48,2.94-7.14,5.32-9.18,13.2-2.04-7.88-3.7-10.26-9.18-13.2,5.48-2.94,7.14-5.32,9.18-13.2,2.04,7.88,3.7,10.26,9.18,13.2Z"/>
  </g>
</svg>